# xmcd CD database file
#
# Track frame offsets:
#	150
#	10110
#	28630
#	48407
#	69927
#	91850
#	112375
#	131310
#	156627
#	183337
#	197082
#
# Disc length: 2846 seconds
#
# Revision: 0
# Processed by: cddbd v1.5.1PL2 Copyright (c) Steve Scherf et al.
# Submitted via: CDex 1.51
#
DISCID=900b1c0b
DTITLE=柳葉敏郎 - A
DYEAR=1994
DGENRE=J-Pop
TTITLE0=聖母(Piano Inst.Version)
TTITLE1=Colour
TTITLE2=YAI YAI-IYA
TTITLE3=メリーゴーランド
TTITLE4=聖母（おんな）
TTITLE5=今心の底に
TTITLE6=点・テ・TEN
TTITLE7=SILHOUETTE MORNING
TTITLE8=KESHI
TTITLE9=冗談じゃねえ
TTITLE10=我楽多（がらくた）
EXTD=YEAR: 1994
EXTT0=
EXTT1=
EXTT2=
EXTT3=
EXTT4=
EXTT5=
EXTT6=
EXTT7=
EXTT8=
EXTT9=
EXTT10=
PLAYORDER=
